<svg width="111" height="75" viewBox="0 0 111 75" fill="none" xmlns="http://www.w3.org/2000/svg">
<g clip-path="url(#clip0_10_186)">
<path d="M79.678 0.60779C77.2182 1.61783 72.8495 4.25117 69.0927 6.99269C68.3321 7.55186 67.5869 8.07488 67.4527 8.18311C66.3641 8.92263 64.3514 10.4557 62.801 11.6822C56.4644 16.7685 53.2589 19.4379 53.2589 19.6543C53.2589 19.7445 53.1993 19.7986 53.1397 19.7806C53.0205 19.7265 51.3951 21.0612 50.8733 21.6203C50.7391 21.7646 50.4561 21.9991 50.2623 22.1434C49.2333 22.8648 45.5211 26.3639 45.6106 26.5262C45.6553 26.6525 45.6253 26.6705 45.5211 26.5984C45.2973 26.418 37.947 33.1096 38.1262 33.326C38.1708 33.3621 38.3796 33.2178 38.618 32.9653L39.0206 32.5324L38.648 33.0374C38.4542 33.308 38.2008 33.4883 38.0812 33.4342C37.977 33.3981 37.3656 33.8491 36.7396 34.4803C36.0986 35.0936 35.2337 35.9232 34.8013 36.3022C34.2497 36.825 34.0857 37.0597 34.2199 37.1856C34.3391 37.294 34.3242 37.312 34.1602 37.2581C33.8769 37.1498 31.2827 39.5846 31.4169 39.8372C31.4616 39.9273 31.4169 40.0536 31.3275 40.1257C31.2082 40.1978 31.1933 40.1799 31.2529 40.0536C31.4616 39.6388 31.1486 39.8372 30.4031 40.5947C29.9856 41.0275 29.4638 41.5328 29.2402 41.7309C28.8525 42.0736 25.1252 45.7891 24.3947 46.565C24.2009 46.763 24.0816 47.0157 24.1412 47.1057C24.1859 47.2141 24.1561 47.2321 24.0667 47.1599C23.9623 47.0878 23.023 47.9175 21.7557 49.2161C20.5928 50.4065 19.579 51.3804 19.4895 51.3804C19.415 51.3804 19.1615 50.7492 18.9528 49.9916C17.8794 46.0055 17.5961 45.0678 17.4619 45.1579C17.3873 45.23 17.3724 45.1579 17.4171 45.0136C17.5215 44.653 14.7782 34.8591 14.0477 33.0735C13.7346 32.2618 13.2724 31.342 13.0487 31.0534C12.8251 30.7468 12.5567 30.35 12.4673 30.1696C12.3629 29.9712 12.184 29.845 12.0647 29.845C11.9305 29.863 11.8709 29.7728 11.9007 29.6646C11.9902 29.376 11.0658 28.5283 9.93272 27.897C8.1585 26.887 5.51959 26.9952 3.65593 28.1134C1.59845 29.358 0.226795 31.8651 0.0478842 34.7329C-0.131027 37.4562 0.152249 39.2961 1.56863 44.5267C2.40354 47.5931 2.89555 49.3966 6.45884 62.6533C8.96362 71.9781 8.88907 71.6896 9.39599 72.6818C10.5142 74.7739 12.6164 75.4231 16.2989 74.7377C17.8794 74.4492 19.743 73.7821 19.6237 73.5474C19.579 73.4573 19.6535 73.4394 19.7728 73.4932C20.399 73.7821 26.1838 69.5975 25.9005 69.0563C25.8558 68.9842 25.9154 68.93 26.0347 68.948C26.154 68.948 26.959 68.1366 27.8238 67.1085C29.2849 65.395 29.6725 64.8718 29.2253 65.1965C29.1209 65.2687 29.106 65.2507 29.1656 65.1065C29.2253 64.9981 29.3445 64.9622 29.434 65.016C29.6129 65.1603 37.4848 55.547 37.3656 55.3306C37.321 55.2402 37.351 55.1864 37.4252 55.2043C37.619 55.2764 37.9174 54.9337 43.8511 47.719C46.7735 44.166 48.9353 41.4065 48.8757 41.2981C48.8161 41.1901 48.8607 41.1359 48.9799 41.208C49.2483 41.316 49.5913 40.8291 49.4421 40.5406C49.3825 40.3963 49.3975 40.3784 49.5167 40.4505C49.6955 40.5947 51.8723 37.9073 51.7977 37.6188C51.7831 37.5467 51.8127 37.5104 51.8873 37.5646C52.0961 37.7268 60.46 27.4641 60.3408 27.1936C60.2662 27.0493 60.2812 27.0132 60.3854 27.1034C60.5646 27.2297 62.6072 24.7406 62.5326 24.4701C62.5176 24.3799 62.5472 24.3438 62.6218 24.3979C62.801 24.5242 63.5762 23.5322 63.442 23.3338C63.3674 23.2616 63.3974 23.2436 63.4866 23.2977C63.6954 23.442 71.3437 14.0991 71.2245 13.8466C71.1649 13.7564 71.2545 13.7384 71.3887 13.8105C71.5975 13.9007 71.6271 13.8646 71.5525 13.6121C71.4929 13.4498 71.5079 13.3416 71.5675 13.3957C71.7313 13.5039 74.3108 10.3655 74.2065 10.2032C74.1616 10.1311 74.1766 10.113 74.2362 10.1671C74.3853 10.3114 78.1576 5.71213 78.053 5.51372C78.0084 5.40549 78.038 5.38744 78.1276 5.45961C78.366 5.62195 78.5152 5.22513 78.3064 4.93655C78.1872 4.75619 78.1872 4.66601 78.3214 4.55778C78.4256 4.48565 78.4556 4.50366 78.396 4.62994C78.3514 4.73814 78.381 4.88243 78.4706 4.9546C78.5748 5.02672 79.0074 4.61189 79.5588 3.89042C80.0656 3.24111 80.8558 2.21303 81.333 1.61783C82.0636 0.697969 82.1828 0.463492 82.0336 0.247053C81.7656 -0.149751 81.3926 -0.0956361 79.678 0.60779ZM38.4988 34.1917C38.4988 34.2098 38.3496 34.318 38.1858 34.4443C37.9324 34.6066 37.8874 34.5886 37.977 34.4082C38.0666 34.2459 38.0216 34.2098 37.8428 34.3C37.7086 34.3721 37.619 34.3541 37.664 34.2639C37.7386 34.1377 38.4988 34.0655 38.4988 34.1917Z" fill="#0E78A7"/>
<path d="M53.5938 65.2163L54.8958 53.7789C54.8958 53.1359 54.736 52.6077 54.4162 52.1943C54.1192 51.7579 53.5824 51.5397 52.8058 51.5397C52.0291 51.5397 51.3895 51.9187 50.887 52.6766C50.3845 53.4115 50.0647 54.1923 49.9276 55.0191C49.1281 60.7378 48.6827 64.1368 48.5913 65.2163H44L45.8845 49.0249C46.8439 48.7723 47.5748 48.6459 48.0774 48.6459C49.5164 48.6459 50.3045 49.1282 50.4416 50.0928C51.5609 49.1282 52.7829 48.6459 54.1078 48.6459C56.7575 48.6459 58.4478 49.4383 59.1788 51.023C60.2981 49.4153 61.8971 48.6115 63.9757 48.6115C65.5062 48.6115 66.7168 49.0134 67.6077 49.8172C68.4985 50.5981 68.9439 51.5856 68.9439 52.7799C68.9439 53.1244 68.8754 53.733 68.7384 54.6057C68.213 58.0507 67.9503 60.0718 67.9503 60.6689C67.9503 61.7483 68.3044 62.288 69.0125 62.288C69.6064 62.288 70.2345 61.8976 70.897 61.1167C71.5823 60.3129 72.1305 59.0842 72.5416 57.4306C73.3183 58.2574 73.7865 58.912 73.9464 59.3943C72.7586 63.3904 70.6571 65.3885 67.6419 65.3885C66.2257 65.3885 65.1749 64.9522 64.4897 64.0794C63.8044 63.2067 63.4618 62.288 63.4618 61.3234L64.2841 53.71C64.2841 53.09 64.1242 52.5732 63.8044 52.1598C63.4846 51.7464 62.9706 51.5397 62.2625 51.5397C61.5773 51.5397 60.9719 51.8038 60.4466 52.3321C59.9212 52.8603 59.5557 53.5378 59.3501 54.3646C58.6648 60.1981 58.2194 63.8153 58.0138 65.2163H53.5938ZM86.7168 65.3885C84.6153 65.3885 83.2219 64.6536 82.5366 63.1837C81.3488 64.6766 79.8184 65.423 77.9453 65.423C76.0951 65.423 74.5304 64.7914 73.2512 63.5282C71.9948 62.2651 71.3667 60.6 71.3667 58.533C71.3667 55.5244 72.2461 53.1244 74.005 51.333C75.7638 49.5416 77.991 48.6459 80.6864 48.6459C80.7549 48.6459 80.8234 48.6459 80.892 48.6459C82.0341 48.6459 83.0848 48.8411 84.0442 49.2316C84.661 48.8411 85.4034 48.6459 86.2714 48.6459C87.1622 48.6459 87.8018 48.7608 88.1901 48.9904C87.9846 50.69 87.7676 52.3665 87.5391 54.0201C87.3107 55.6507 87.1508 56.8105 87.0594 57.4995C86.8539 59.0612 86.7511 60.1866 86.7511 60.8756C86.7511 61.7943 87.1165 62.2536 87.8475 62.2536C88.4186 62.2536 89.0239 61.8746 89.6635 61.1167C90.3031 60.3359 90.8627 59.1187 91.3424 57.4651C92.0048 58.0622 92.4617 58.7282 92.7129 59.4632C92.0505 61.645 91.1597 63.1837 90.0404 64.0794C88.9211 64.9522 87.8132 65.3885 86.7168 65.3885ZM81.2003 51.333C79.7384 51.333 78.5735 51.8957 77.7055 53.0211C76.8603 54.1234 76.3578 55.777 76.1979 57.9818C76.175 58.1885 76.1636 58.3837 76.1636 58.5675C76.1636 59.6928 76.4263 60.5885 76.9517 61.2545C77.4999 61.9206 78.1966 62.2536 79.0417 62.2536C80.4808 62.2536 81.5658 61.2316 82.2968 59.1876L83.1191 51.7464C82.4567 51.4708 81.8171 51.333 81.2003 51.333ZM92.845 39.8612C93.3704 39.31 94.01 39.0345 94.7638 39.0345C95.5176 39.0345 96.1572 39.31 96.6825 39.8612C97.2307 40.3895 97.5049 41.0325 97.5049 41.7904C97.5049 42.5483 97.2307 43.1914 96.6825 43.7196C96.1572 44.2478 95.5176 44.512 94.7638 44.512C94.01 44.512 93.3704 44.2478 92.845 43.7196C92.3196 43.1914 92.0569 42.5483 92.0569 41.7904C92.0569 41.0325 92.3196 40.3895 92.845 39.8612ZM91.4402 49.955C91.6686 49.5416 92.1026 49.2316 92.7422 49.0249C93.3818 48.7952 94.01 48.6804 94.6267 48.6804C95.2663 48.6804 95.8259 48.7608 96.3056 48.9215C95.4148 55.8344 94.9693 59.3254 94.9693 59.3943C94.8551 59.8536 94.798 60.244 94.798 60.5655C94.798 60.8641 94.8209 61.1282 94.8665 61.3579C94.9579 61.955 95.3691 62.2536 96.1 62.2536C96.8539 62.2536 97.5391 61.7713 98.1559 60.8067C98.7955 59.8191 99.2751 58.7053 99.5949 57.4651C99.7548 57.5569 100.006 57.8325 100.349 58.2919C100.691 58.7512 100.897 59.0957 100.965 59.3254C100.509 61.1627 99.732 62.644 98.6356 63.7694C97.5391 64.8947 96.2257 65.4574 94.6952 65.4574C93.1648 65.4574 92.0227 65.0785 91.2689 64.3206C90.5379 63.5627 90.1724 62.5866 90.1724 61.3923C90.1724 61.1397 90.1839 60.8756 90.2067 60.6L91.4402 49.955ZM102.763 65.4574C101.369 65.4574 100.273 65.067 99.4732 64.2861C98.6737 63.4823 98.274 62.3914 98.274 61.0134C98.274 60.6459 98.8908 55.1914 100.124 44.6498C100.444 41.9397 101.301 40.2287 102.694 39.5167C103.334 39.1722 104.099 39 104.99 39C108.005 39 109.512 40.401 109.512 43.2029C109.512 43.4325 109.501 43.6737 109.478 43.9263C109.25 47.0038 107.331 50.1388 103.722 53.3311C103.608 54.4565 103.482 55.5474 103.345 56.6038C103.071 58.9694 102.934 60.2785 102.934 60.5311C102.934 61.7254 103.448 62.3225 104.476 62.3225C105.595 62.3225 106.634 61.6794 107.594 60.3933C108.576 59.0842 109.33 57.4191 109.855 55.3981C110.061 55.467 110.346 55.6622 110.712 55.9837C111.077 56.2823 111.328 56.5464 111.466 56.7761C111.1 58.6823 110.278 60.5081 108.999 62.2536C108.359 63.1493 107.548 63.8842 106.566 64.4584C105.447 65.1244 104.179 65.4574 102.763 65.4574ZM104.099 49.8861C106.2 47.5665 107.251 45.488 107.251 43.6507C107.251 42.5483 106.84 41.9971 106.018 41.9971C105.492 42.0431 105.138 42.3876 104.955 43.0306C104.796 43.6737 104.636 44.7187 104.476 46.1656C104.339 47.6124 104.247 48.5081 104.202 48.8526L104.099 49.8861Z" fill="#FA5320"/>
</g>
<defs>
<clipPath id="clip0_10_186">
<rect width="111" height="75" fill="white"/>
</clipPath>
</defs>
</svg>
